<svg xmlns="http://www.w3.org/2000/svg" viewBox="0 0 2.27 2.26"><defs><style>.cls-1{fill:#f59a45;}</style></defs><title>Instagram2</title><g id="Camada_2" data-name="Camada 2"><g id="Edição"><g id="Instagram"><path class="cls-1" d="M.55.25H2.22a.27.27,0,0,1,.3.29V2.21a.27.27,0,0,1-.3.3H.54a.27.27,0,0,1-.29-.3V.55A.27.27,0,0,1,.55.25ZM1.82,1.38A.44.44,0,0,0,1.38.94a.45.45,0,0,0-.44.43.44.44,0,0,0,.44.44A.43.43,0,0,0,1.82,1.38ZM2,1c.22,0,.22,0,.22-.22S2.26.5,2,.5s-.22,0-.22.22S1.81,1,2,1Zm-.66,1.3h.74c.11,0,.14,0,.14-.13V1.35c0-.16,0-.16-.16-.15s0,0,0,.05a.58.58,0,0,1,0,.32A.7.7,0,0,1,.69,1.3c0-.1,0-.09-.09-.1s-.09,0-.09.09v.83c0,.1,0,.13.13.13Z" transform="translate(-0.25 -0.25)"/></g></g></g></svg>