<svg xmlns="http://www.w3.org/2000/svg" viewBox="0 0 2.27 2.26"><defs><style>.cls-1{fill:#444851;fill-rule:evenodd;}</style></defs><title>instagram</title><g id="Camada_2" data-name="Camada 2"><g id="Layer_1" data-name="Layer 1"><g id="Instagram"><path class="cls-1" d="M2,0H.3A.27.27,0,0,0,0,.3V2a.26.26,0,0,0,.29.29H2a.27.27,0,0,0,.3-.3V.3A.27.27,0,0,0,2,0ZM1.78.26C2,.26,2,.26,2,.48S2,.7,1.79.7,1.56.7,1.56.48,1.56.26,1.78.26ZM1.13.69a.45.45,0,0,1,.44.44.44.44,0,0,1-.44.44.46.46,0,0,1-.44-.44A.46.46,0,0,1,1.13.69ZM2,1.87C2,2,2,2,1.87,2H.39c-.1,0-.13,0-.13-.14V1.05c0-.08,0-.1.09-.1s.11,0,.09.11A.69.69,0,0,0,1,1.81a.7.7,0,0,0,.81-.48.62.62,0,0,0,0-.33s0,0,0,0S2,.94,2,1.1Z"/></g></g></g></svg>