<svg xmlns="http://www.w3.org/2000/svg" viewBox="0 0 2.67 2.19"><defs><style>.cls-1{fill:#444851;fill-rule:evenodd;}</style></defs><title>tweeter</title><g id="Camada_2" data-name="Camada 2"><g id="Layer_1" data-name="Layer 1"><g id="Tweeter"><path class="cls-1" d="M0,2a1.23,1.23,0,0,0,.57-.1A.88.88,0,0,0,.8,1.71a.46.46,0,0,1-.23-.06A.55.55,0,0,1,.3,1.36s0,0,0,0a.46.46,0,0,0,.21,0L.4,1.27A.56.56,0,0,1,.1.8s0,0,0,0A.47.47,0,0,0,.34.84L.25.75A.56.56,0,0,1,.16.13s0,0,0,0a1.56,1.56,0,0,0,1,.54l.12,0s0,0,0,0A.57.57,0,0,1,1.58.07a.56.56,0,0,1,.65.08.07.07,0,0,0,.06,0A1,1,0,0,0,2.58.05h0a.51.51,0,0,1-.24.3,1.32,1.32,0,0,0,.3-.07s0,0,0,0a1.67,1.67,0,0,1-.23.23s0,0,0,0A1.62,1.62,0,0,1,2,1.65a1.5,1.5,0,0,1-.92.52A1.58,1.58,0,0,1,0,2Z"/></g></g></g></svg>