<svg xmlns="http://www.w3.org/2000/svg" viewBox="0 0 2.67 2.18"><defs><style>.cls-1{fill:#f59a45;}</style></defs><title>tweeter2</title><g id="Camada_2" data-name="Camada 2"><g id="Edição"><g id="Tweeter"><path class="cls-1" d="M2.62.59a1,1,0,0,0,.3-.08s0,0,0,0a1.26,1.26,0,0,1-.22.24s0,0,0,0A1.71,1.71,0,0,1,2.28,1.9a1.55,1.55,0,0,1-.92.51A1.56,1.56,0,0,1,.26,2.2a0,0,0,0,0,0,0,1,1,0,0,0,.57-.1A1,1,0,0,0,1.05,2,1.05,1.05,0,0,1,.81,1.9a.59.59,0,0,1-.26-.3s0,0,0,0a.42.42,0,0,0,.2,0,.35.35,0,0,1-.13-.05A.54.54,0,0,1,.35,1s0,0,0,0a.54.54,0,0,0,.22.05A.36.36,0,0,1,.5,1,.55.55,0,0,1,.41.38s0,0,0,0a1.51,1.51,0,0,0,1,.54h.12s0,0,0,0A.55.55,0,0,1,2.48.4a.07.07,0,0,0,.06,0A1,1,0,0,0,2.83.3l0,0A.55.55,0,0,1,2.62.59Z" transform="translate(-0.25 -0.25)"/></g></g></g></svg>