<svg xmlns="http://www.w3.org/2000/svg" viewBox="0 0 2.55 2.57"><defs><style>.cls-1{fill:#444851;fill-rule:evenodd;}</style></defs><title>whatsapp</title><g id="Camada_2" data-name="Camada 2"><g id="Layer_1" data-name="Layer 1"><g id="What_s" data-name="What&apos;s"><path class="cls-1" d="M2.52,1A1.27,1.27,0,0,0,1.28,0L1,0A1.28,1.28,0,0,0,.16,1.88a.13.13,0,0,1,0,.06c-.06.2-.11.4-.17.6,0,0,0,0,0,0L.65,2.4h0a1.23,1.23,0,0,0,.84.12A1.27,1.27,0,0,0,2.52,1ZM1.46,2.32H1.31a1.09,1.09,0,0,1-.58-.15.07.07,0,0,0-.06,0l-.34.09s0,0,0,0L.4,1.92a.11.11,0,0,0,0-.08A1,1,0,0,1,.42.66,1,1,0,0,1,1.5.24a1,1,0,0,1,.81.8A1.06,1.06,0,0,1,1.46,2.32Z"/><path class="cls-1" d="M1.61,1.88a.2.2,0,0,1-.13,0,1.28,1.28,0,0,1-.69-.5.71.71,0,0,1-.15-.3A.33.33,0,0,1,.75.72a.18.18,0,0,1,.17,0s0,0,0,0S1,.9,1.06,1a0,0,0,0,1,0,.05A.76.76,0,0,1,1,1.15a0,0,0,0,0,0,.06.86.86,0,0,0,.44.38s.05,0,.06,0a.58.58,0,0,0,.1-.12,0,0,0,0,1,.07,0l.18.08.05,0c.06,0,.06,0,0,.11a.27.27,0,0,1-.23.23A.11.11,0,0,1,1.61,1.88Z"/></g></g></g></svg>